<svg width="36" height="37" viewBox="0 0 36 37" fill="none" xmlns="http://www.w3.org/2000/svg">
<path d="M17.5619 12.6419C14.3363 12.6419 11.704 15.2743 11.704 18.4998C11.704 21.7254 14.3363 24.3577 17.5619 24.3577C20.7875 24.3577 23.4198 21.7254 23.4198 18.4998C23.4198 15.2743 20.7875 12.6419 17.5619 12.6419ZM35.1312 18.4998C35.1312 16.0741 35.1532 13.6702 35.017 11.2489C34.8807 8.43636 34.2391 5.94027 32.1825 3.88363C30.1214 1.8226 27.6297 1.18539 24.8172 1.04916C22.3915 0.912928 19.9876 0.934901 17.5663 0.934901C15.1405 0.934901 12.7367 0.912928 10.3153 1.04916C7.50278 1.18539 5.00668 1.82699 2.95004 3.88363C0.889003 5.94466 0.251795 8.43636 0.115565 11.2489C-0.0206656 13.6746 0.00130713 16.0785 0.00130713 18.4998C0.00130713 20.9212 -0.0206656 23.3294 0.115565 25.7508C0.251795 28.5633 0.893398 31.0594 2.95004 33.116C5.01108 35.1771 7.50278 35.8143 10.3153 35.9505C12.7411 36.0867 15.1449 36.0648 17.5663 36.0648C19.992 36.0648 22.3959 36.0867 24.8172 35.9505C27.6297 35.8143 30.1258 35.1727 32.1825 33.116C34.2435 31.055 34.8807 28.5633 35.017 25.7508C35.1576 23.3294 35.1312 20.9256 35.1312 18.4998ZM17.5619 27.513C12.5741 27.513 8.54868 23.4876 8.54868 18.4998C8.54868 13.512 12.5741 9.48666 17.5619 9.48666C22.5497 9.48666 26.5751 13.512 26.5751 18.4998C26.5751 23.4876 22.5497 27.513 17.5619 27.513ZM26.9442 11.2225C25.7796 11.2225 24.8392 10.2821 24.8392 9.11752C24.8392 7.95297 25.7796 7.01254 26.9442 7.01254C28.1087 7.01254 29.0492 7.95297 29.0492 9.11752C29.0495 9.39404 28.9953 9.66792 28.8897 9.92347C28.784 10.179 28.6289 10.4112 28.4334 10.6067C28.2379 10.8023 28.0057 10.9573 27.7501 11.063C27.4946 11.1686 27.2207 11.2228 26.9442 11.2225Z" fill="#333333"/>
</svg>
